# xmcd
#
# Track frame offsets: 
#        150
#        3994
#        19894
#        40894
#        61144
#        80269
#        102469
#        119869
#        135619
#        160669
#        179719
#        188569
#
# Disc length: 2748 seconds
#
# Revision: 0
# Processed by: cddbd v1.5.2PL0 Copyright (c) Steve Scherf et al.
# Submitted via: ExactAudioCopy v0.99pb4
#
DISCID=9c0aba0c
DTITLE=Po' Girl final split - Groningen 2009
DYEAR=1900
DGENRE=
TTITLE0=Groningen Intro
TTITLE1=Bloom
TTITLE2=Deer In The Night
TTITLE3=Montana
TTITLE4=Drive All Night
TTITLE5=Kathy
TTITLE6=Gandy Dancer
TTITLE7=One Little City
TTITLE8=Til Its Gone
TTITLE9=Movin On
TTITLE10=Who All Is Here
TTITLE11=I Was Stabbed By Satan
EXTD=
EXTT0=
EXTT1=
EXTT2=
EXTT3=
EXTT4=
EXTT5=
EXTT6=
EXTT7=
EXTT8=
EXTT9=
EXTT10=
EXTT11=
PLAYORDER=
